<svg width="44" height="44" viewBox="0 0 44 44" fill="none" xmlns="http://www.w3.org/2000/svg">
<g clip-path="url(#clip0)">
<path d="M32.2667 8.7H30.1667V7.43333H33.7333C35.0035 7.43333 36.0333 6.4035 36.0333 5.13333V3.66667C36.0333 3.20646 35.6602 2.83333 35.2 2.83333H33.1V2.2L33.1 2.1995C33.0936 0.932227 32.0678 -0.0936362 30.8005 -0.1H30.8H16.1333C14.8632 -0.1 13.8333 0.92983 13.8333 2.2V8.7H11.7333H11.7332C9.65391 8.70257 7.96926 10.3872 7.96668 12.4665V12.4667L7.96668 40.3333L7.96668 40.3335C7.96926 42.4128 9.65391 44.0974 11.7332 44.1H11.7333H32.2667H32.2668C34.3461 44.0974 36.0308 42.4128 36.0333 40.3335V40.3333V12.4667V12.4665C36.0308 10.3872 34.3461 8.70257 32.2668 8.7H32.2667ZM31.25 1.75978L31.25 1.75982L31.2526 1.76236C31.3694 1.87767 31.4346 2.03507 31.4333 2.19925V2.2L31.4333 5.13333L31.4334 5.13433C31.4355 5.3487 31.4678 5.5616 31.5294 5.76667H30.1667V2.2C30.1667 1.85025 30.4503 1.56667 30.8 1.56667L30.8002 1.56667C30.9704 1.56636 31.1334 1.63606 31.25 1.75978ZM28.5 2.2V13.1H15.5V2.2C15.5 1.85025 15.7836 1.56667 16.1333 1.56667H28.5961C28.5345 1.77173 28.5022 1.98463 28.5 2.199V2.2ZM31.5333 13.1H30.1667V10.3667H32.2667C33.4264 10.3667 34.3667 11.307 34.3667 12.4667V40.3333C34.3667 41.493 33.4264 42.4333 32.2667 42.4333H11.7333C10.5736 42.4333 9.63335 41.493 9.63335 40.3333V12.4667C9.63335 11.307 10.5736 10.3667 11.7333 10.3667H13.8333V13.1H12.4667H12.3667V13.2V14.6667V14.7667H12.4667H31.5333H31.6333V14.6667V13.2V13.1H31.5333ZM34.3667 4.5V5.13333C34.3667 5.48309 34.0831 5.76667 33.7333 5.76667C33.3836 5.76667 33.1 5.48309 33.1 5.13333V4.5H34.3667Z" fill="white" stroke="white" stroke-width="0.2"/>
<path d="M13.2 16.0333C12.3348 16.0333 11.6333 16.7348 11.6333 17.6V22C11.6333 22.8652 12.3348 23.5666 13.2 23.5666H30.8C31.6652 23.5666 32.3667 22.8652 32.3667 22V17.6C32.3667 16.7348 31.6652 16.0333 30.8 16.0333H13.2ZM13.3 21.9V17.7H30.7V21.9H13.3Z" fill="white" stroke="white" stroke-width="0.2"/>
<path d="M22 26.2999C20.3249 26.2999 18.9667 27.6581 18.9667 29.3332C18.9667 31.0084 20.3249 32.3666 22 32.3666C23.6752 32.3666 25.0333 31.0084 25.0333 29.3332C25.0333 27.6581 23.6752 26.2999 22 26.2999ZM22 30.6999C21.2453 30.6999 20.6333 30.088 20.6333 29.3332C20.6333 28.5785 21.2453 27.9666 22 27.9666C22.7547 27.9666 23.3667 28.5785 23.3667 29.3332C23.3667 30.088 22.7547 30.6999 22 30.6999Z" fill="white" stroke="white" stroke-width="0.2"/>
<path d="M29.3333 26.2999C27.6582 26.2999 26.3 27.6581 26.3 29.3332C26.3 31.0084 27.6582 32.3666 29.3333 32.3666C31.0085 32.3666 32.3667 31.0084 32.3667 29.3332C32.3667 27.6581 31.0085 26.2999 29.3333 26.2999ZM29.3333 30.6999C28.5786 30.6999 27.9667 30.088 27.9667 29.3332C27.9667 28.5785 28.5786 27.9666 29.3333 27.9666C30.0881 27.9666 30.7 28.5785 30.7 29.3332C30.7 30.088 30.0881 30.6999 29.3333 30.6999Z" fill="white" stroke="white" stroke-width="0.2"/>
<path d="M14.6667 26.2999C12.9915 26.2999 11.6333 27.6581 11.6333 29.3332C11.6333 31.0084 12.9915 32.3666 14.6667 32.3666C16.3418 32.3666 17.7 31.0084 17.7 29.3332C17.7 27.6581 16.3418 26.2999 14.6667 26.2999ZM14.6667 30.6999C13.9119 30.6999 13.3 30.088 13.3 29.3332C13.3 28.5785 13.9119 27.9666 14.6667 27.9666C15.4214 27.9666 16.0333 28.5785 16.0333 29.3332C16.0333 30.088 15.4214 30.6999 14.6667 30.6999Z" fill="white" stroke="white" stroke-width="0.2"/>
<path d="M22 33.6334C20.3248 33.6334 18.9667 34.9916 18.9667 36.6667C18.9667 38.3419 20.3248 39.7001 22 39.7001C23.6751 39.7001 25.0333 38.3419 25.0333 36.6667C25.0333 34.9916 23.6751 33.6334 22 33.6334ZM22 38.0334C21.2453 38.0334 20.6333 37.4215 20.6333 36.6667C20.6333 35.912 21.2453 35.3001 22 35.3001C22.7547 35.3001 23.3667 35.912 23.3667 36.6667C23.3667 37.4215 22.7547 38.0334 22 38.0334Z" fill="white" stroke="white" stroke-width="0.2"/>
<path d="M29.3333 33.6334C27.6582 33.6334 26.3 34.9916 26.3 36.6667C26.3 38.3419 27.6582 39.7001 29.3333 39.7001C31.0085 39.7001 32.3667 38.3419 32.3667 36.6667C32.3667 34.9916 31.0085 33.6334 29.3333 33.6334ZM29.3333 38.0334C28.5786 38.0334 27.9667 37.4215 27.9667 36.6667C27.9667 35.912 28.5786 35.3001 29.3333 35.3001C30.0881 35.3001 30.7 35.912 30.7 36.6667C30.7 37.4215 30.0881 38.0334 29.3333 38.0334Z" fill="white" stroke="white" stroke-width="0.2"/>
<path d="M14.6667 33.6334C12.9915 33.6334 11.6333 34.9916 11.6333 36.6667C11.6333 38.3419 12.9915 39.7001 14.6667 39.7001C16.3418 39.7001 17.7 38.3419 17.7 36.6667C17.7 34.9916 16.3418 33.6334 14.6667 33.6334ZM14.6667 38.0334C13.9119 38.0334 13.3 37.4215 13.3 36.6667C13.3 35.912 13.9119 35.3001 14.6667 35.3001C15.4214 35.3001 16.0333 35.912 16.0333 36.6667C16.0333 37.4215 15.4214 38.0334 14.6667 38.0334Z" fill="white" stroke="white" stroke-width="0.2"/>
<path d="M17.6 9.43345H17.5V9.53345V11.0001V11.1001H17.6H20.5333H20.6333V11.0001V9.53345V9.43345H20.5333H17.6Z" fill="white" stroke="white" stroke-width="0.2"/>
<path d="M22 9.43345H21.9V9.53345V11.0001V11.1001H22H26.4H26.5V11.0001V9.53345V9.43345H26.4H22Z" fill="white" stroke="white" stroke-width="0.2"/>
<path d="M17.6 6.5001H17.5V6.6001V8.06676V8.16676H17.6H20.5333H20.6333V8.06676V6.6001V6.5001H20.5333H17.6Z" fill="white" stroke="white" stroke-width="0.2"/>
<path d="M22 6.5001H21.9V6.6001V8.06676V8.16676H22H26.4H26.5V8.06676V6.6001V6.5001H26.4H22Z" fill="white" stroke="white" stroke-width="0.2"/>
<path d="M17.6 3.56675H17.5V3.66675V5.13341V5.23341H17.6H20.5333H20.6333V5.13341V3.66675V3.56675H20.5333H17.6Z" fill="white" stroke="white" stroke-width="0.2"/>
<path d="M22 3.56675H21.9V3.66675V5.13341V5.23341H22H26.4H26.5V5.13341V3.66675V3.56675H26.4H22Z" fill="white" stroke="white" stroke-width="0.2"/>
<path d="M21.2667 18.9667H21.1667V19.0667V20.5333V20.6333H21.2667H22.7333H22.8333V20.5333V19.0667V18.9667H22.7333H21.2667Z" fill="white" stroke="white" stroke-width="0.2"/>
<path d="M24.2 18.9667H24.1V19.0667V20.5333V20.6333H24.2H25.6667H25.7667V20.5333V19.0667V18.9667H25.6667H24.2Z" fill="white" stroke="white" stroke-width="0.2"/>
<path d="M18.3333 18.9667H18.2333V19.0667V20.5333V20.6333H18.3333H19.8H19.9V20.5333V19.0667V18.9667H19.8H18.3333Z" fill="white" stroke="white" stroke-width="0.2"/>
</g>
<defs>
<clipPath id="clip0">
<rect width="44" height="44" fill="white"/>
</clipPath>
</defs>
</svg>
