<svg width="42" height="42" viewBox="0 0 42 42" fill="none" xmlns="http://www.w3.org/2000/svg">
<path d="M36.5481 22.2005H33.646L33.7993 18.9823C33.8167 18.6176 33.6838 18.2616 33.4319 17.9974C33.18 17.7333 32.8306 17.5837 32.4657 17.5837H3.09399C2.72882 17.5837 2.37968 17.7333 2.12778 17.9974C1.87588 18.2618 1.74304 18.6176 1.76039 18.9823L2.3532 31.4179C2.49962 34.491 4.38196 37.0767 7.02667 38.2514H1.33515C0.597924 38.2514 0 38.8493 0 39.5866C0 40.3238 0.597924 40.9217 1.33515 40.9217H34.4128C35.15 40.9217 35.7479 40.3238 35.7479 39.5866C35.7479 38.8493 35.15 38.2514 34.4128 38.2514H28.5332C30.677 37.299 32.3184 35.4193 32.9415 33.1042H36.5481C39.5542 33.1042 42 30.6584 42 27.6523C42 24.6462 39.5542 22.2005 36.5481 22.2005ZM25.328 36.2598H10.2319C7.44234 36.2598 5.15323 34.0771 5.02038 31.2906L4.49433 20.2536H31.0654L30.5395 31.2906C30.4067 34.0771 28.1176 36.2598 25.328 36.2598ZM36.5481 30.4339H33.2537L33.5189 24.8679C33.5387 24.8688 33.5583 24.8708 33.5783 24.8708H36.5481C38.082 24.8708 39.3297 26.1185 39.3297 27.6523C39.3297 29.1862 38.082 30.4339 36.5481 30.4339Z" fill="white"/>
<path d="M13.8566 15.3951C14.0698 15.521 14.3037 15.5811 14.5347 15.5811C14.9913 15.5811 15.4361 15.3466 15.6854 14.9251C16.0608 14.2903 15.8502 13.4716 15.2154 13.0964C14.473 12.6576 13.9599 11.848 13.8077 10.8756C13.6493 9.86312 13.9138 8.85464 14.5149 8.17839C14.5202 8.17238 14.5256 8.16637 14.5307 8.16014C14.676 7.99058 14.8213 7.82391 14.9653 7.65857C16.2003 6.2402 17.4776 4.77398 17.8443 2.63997C17.9694 1.9132 17.4814 1.22271 16.7548 1.09787C16.028 0.973034 15.3375 1.46059 15.2127 2.18735C14.9726 3.58392 14.036 4.65938 12.9516 5.90463C12.8054 6.07241 12.6581 6.24175 12.5108 6.41354C11.3913 7.67926 10.8899 9.50041 11.1697 11.2879C11.4451 13.0517 12.4247 14.5486 13.8566 15.3951Z" fill="white"/>
<path d="M18.0002 12.3801C18.4411 13.5152 19.2275 14.5549 20.2148 15.3074C20.4565 15.4917 20.7409 15.5809 21.0232 15.5809C21.4256 15.5809 21.8234 15.3998 22.086 15.0551C22.5331 14.4688 22.42 13.6309 21.8335 13.1839C21.2406 12.7319 20.7506 12.0868 20.4894 11.4137C19.9689 10.0734 20.462 8.73785 22.1385 6.94764C23.327 5.67835 24.0867 4.18343 24.3353 2.62398C24.4512 1.89588 23.9552 1.21139 23.2269 1.09523C22.4988 0.979075 21.8143 1.47531 21.6982 2.20363C21.5315 3.24927 21.0239 4.23128 20.1894 5.12249C19.3138 6.05731 16.6497 8.90229 18.0002 12.3801Z" fill="white"/>
</svg>
