<svg width="60" height="60" viewBox="0 0 60 60" fill="none" xmlns="http://www.w3.org/2000/svg">
<path d="M55.5136 24.7855L50.1812 19.4531L55.9695 13.6649C56.6559 12.9784 56.6559 11.8655 55.9695 11.179C55.2831 10.4925 54.17 10.4925 53.4836 11.179L41.6164 23.0461L39.5195 14.6583C38.9313 12.3066 36.8276 10.6641 34.4036 10.6641H18.6824C16.2584 10.6641 14.1546 12.3066 13.5663 14.6584L11.0494 24.7266H5.39062C2.47688 24.7266 0 27.0814 0 30V37.0312C0 38.448 0.579375 39.7821 1.63137 40.7878C2.65465 41.766 3.98965 42.3047 5.39062 42.3047H7.14844C7.14844 46.1817 10.3027 49.3359 14.1797 49.3359C18.0567 49.3359 21.2109 46.1817 21.2109 42.3047H38.9062C38.9062 46.1817 42.0605 49.3359 45.9375 49.3359C49.8145 49.3359 52.9688 46.1817 52.9688 42.3047H54.7266C57.6343 42.3047 60 39.939 60 37.0312V30C60 27.3596 58.0494 25.1667 55.5136 24.7855ZM47.6953 21.939L50.4828 24.7266H44.9078L47.6953 21.939ZM28.2422 14.1797H34.4036C35.2116 14.1797 35.9129 14.7273 36.1089 15.5111L38.4127 24.7266H28.2422V14.1797ZM16.977 15.5113C17.173 14.7273 17.8744 14.1797 18.6824 14.1797H24.7266V24.7266H14.6733L16.977 15.5113ZM14.1797 45.8203C12.2412 45.8203 10.6641 44.2432 10.6641 42.3047C10.6641 40.3662 12.2412 38.7891 14.1797 38.7891C16.1182 38.7891 17.6953 40.3662 17.6953 42.3047C17.6953 44.2432 16.1182 45.8203 14.1797 45.8203ZM45.9375 45.8203C43.999 45.8203 42.4219 44.2432 42.4219 42.3047C42.4219 40.3662 43.999 38.7891 45.9375 38.7891C47.876 38.7891 49.4531 40.3662 49.4531 42.3047C49.4531 44.2432 47.876 45.8203 45.9375 45.8203ZM56.4844 31.7578H54.7266C53.7558 31.7578 52.9688 32.5448 52.9688 33.5156C52.9688 34.4864 53.7558 35.2734 54.7266 35.2734H56.4844V37.0312C56.4844 38.0005 55.6958 38.7891 54.7266 38.7891H52.0228C50.8051 36.6895 48.5343 35.2734 45.9375 35.2734C43.3407 35.2734 41.0699 36.6895 39.8522 38.7891H20.265C19.0473 36.6895 16.7764 35.2734 14.1797 35.2734C11.5829 35.2734 9.31207 36.6895 8.09437 38.7891H5.39062C4.39184 38.7891 3.51562 37.9677 3.51562 37.0312V35.2734H5.39062C6.36141 35.2734 7.14844 34.4864 7.14844 33.5156C7.14844 32.5448 6.36141 31.7578 5.39062 31.7578H3.51562V30C3.51562 29.0636 4.39184 28.2422 5.39062 28.2422C8.49551 28.2422 53.1514 28.2422 54.7266 28.2422C55.6958 28.2422 56.4844 29.0307 56.4844 30V31.7578Z" fill="#444C57"/>
<path d="M30 31.7578H26.4844C25.5136 31.7578 24.7266 32.5448 24.7266 33.5156C24.7266 34.4864 25.5136 35.2734 26.4844 35.2734H30C30.9708 35.2734 31.7578 34.4864 31.7578 33.5156C31.7578 32.5448 30.9708 31.7578 30 31.7578Z" fill="#444C57"/>
</svg>
