<svg width="32" height="32" viewBox="0 0 32 32" fill="none" xmlns="http://www.w3.org/2000/svg">
<path d="M16.0606 31.0303C24.6294 31.0303 31.5758 24.0839 31.5758 15.5152C31.5758 6.94637 24.6294 0 16.0606 0C7.49184 0 0.545471 6.94637 0.545471 15.5152C0.545471 24.0839 7.49184 31.0303 16.0606 31.0303Z" fill="white"/>
<path d="M19.3957 8.12417L17.4769 8.12109C15.3211 8.12109 13.928 9.54953 13.928 11.7604V13.4384H11.9987C11.832 13.4384 11.697 13.5735 11.697 13.7401V16.1713C11.697 16.3379 11.8321 16.4728 11.9987 16.4728H13.928V22.6074C13.928 22.7741 14.063 22.909 14.2297 22.909H16.7469C16.9136 22.909 17.0486 22.7739 17.0486 22.6074V16.4728H19.3044C19.4711 16.4728 19.6061 16.3379 19.6061 16.1713L19.6071 13.7401C19.6071 13.6601 19.5752 13.5835 19.5187 13.5268C19.4622 13.4702 19.3852 13.4384 19.3052 13.4384H17.0486V12.0159C17.0486 11.3323 17.2116 10.9852 18.1028 10.9852L19.3954 10.9847C19.562 10.9847 19.697 10.8497 19.697 10.6832V8.4257C19.697 8.2594 19.5621 8.12448 19.3957 8.12417Z" fill="#444C57"/>
</svg>
