<svg width="48" height="48" viewBox="0 0 48 48" fill="none" xmlns="http://www.w3.org/2000/svg">
<path d="M44.5048 32.2923C44.4955 32.2854 44.4862 32.2785 44.4768 32.2719C41.1664 29.9143 34.3973 25.0936 31.3001 22.888L31.7759 22.3393C31.7796 22.3349 31.7833 22.3306 31.787 22.3263C32.0546 22.0099 32.4459 21.8284 32.8604 21.8284H38.3458C39.4728 21.8284 40.532 21.3896 41.3287 20.5928L45.94 15.9816C48.6813 13.2403 48.6813 8.77966 45.94 6.03822C45.6763 5.77451 45.3186 5.62629 44.9457 5.62629C44.5728 5.62629 44.215 5.77441 43.9514 6.03813L39.974 10.0156C39.4257 10.5638 38.5335 10.5638 37.9853 10.0156C37.4357 9.46591 37.4357 8.5765 37.9853 8.02694L41.9627 4.04951C42.5119 3.50032 42.5119 2.60998 41.9627 2.06089C39.2151 -0.686729 34.7673 -0.687198 32.0194 2.06089L27.4081 6.67225C26.6112 7.46903 26.1562 8.52841 26.1562 9.65528V15.1406C26.1562 15.5551 25.9909 15.9464 25.6745 16.2141C25.6712 16.2169 25.6678 16.2197 25.6646 16.2226L23.7976 17.8325L16.6504 10.6853L14.7671 5.03435C14.6498 4.6827 14.3985 4.39151 14.0677 4.22417L6.01928 0.153175C5.47713 -0.121043 4.82004 -0.0161367 4.39019 0.413519L0.412766 4.39095C-0.016983 4.8206 -0.121983 5.47779 0.152329 6.01994L4.22351 14.0685C4.39076 14.3992 4.68204 14.6505 5.03369 14.7678L10.6847 16.6515L17.3909 23.3577L2.49467 36.2033C1.14542 37.3472 0.279454 38.9409 0.0558606 40.6919C-0.177014 42.5162 0.323141 44.2709 1.46426 45.6324C4.1156 48.7961 8.91634 48.7673 11.539 45.6773L22.7077 32.7972C23.7259 34.0414 31.3612 43.3709 32.3103 44.5306C35.5001 48.7525 41.6943 49.1849 45.4392 45.4399C49.1934 41.6858 48.7477 35.4745 44.5048 32.2923ZM12.4387 14.4281C12.2844 14.2738 12.0961 14.1574 11.8891 14.0883L6.472 12.2827L3.12185 5.65948L5.65863 3.12251L12.2819 6.47276L14.0875 11.8898C14.1565 12.0969 14.2729 12.2851 14.4272 12.4395L21.6622 19.6743L19.5266 21.5159L12.4387 14.4281ZM9.40956 43.8402C9.4059 43.8445 9.40215 43.8488 9.3985 43.8531C7.90131 45.6227 5.14985 45.6514 3.61985 43.826C2.32001 42.275 2.63914 39.7652 4.31698 38.3456C4.32026 38.3428 4.32363 38.3399 4.32691 38.3371C16.8153 27.5851 24.4062 21.0216 27.4967 18.3566C28.4427 17.5535 28.9689 16.3818 28.9689 15.1406V9.65528C28.9689 9.27972 29.1313 8.92656 29.3969 8.66097L34.0082 4.0497C35.33 2.72792 37.2742 2.48867 38.8109 3.22432L35.997 6.03832C34.3521 7.68316 34.3521 10.3595 35.997 12.0044C37.6417 13.6491 40.3182 13.6491 41.963 12.0044L44.7756 9.19178C45.5227 10.7597 45.248 12.6967 43.9517 13.9931L39.3404 18.6044C39.0748 18.8699 38.7216 19.0349 38.3461 19.0349H32.8607C31.6205 19.0349 30.4495 19.5578 29.6466 20.5025L9.40956 43.8402ZM24.5774 30.6411L29.4493 25.0226L31.7006 26.6259L26.449 32.9279L24.5774 30.6411ZM43.4506 43.4513C40.9069 45.9949 36.6981 45.6936 34.5415 42.8182C34.5296 42.8024 34.5173 42.7867 34.5048 42.7714L28.2629 35.1443L33.9982 28.262L42.8304 34.5519C45.6985 36.7154 45.9864 40.9155 43.4506 43.4513Z" fill="#444C57"/>
</svg>
