<svg width="43" height="43" viewBox="0 0 43 43" fill="none" xmlns="http://www.w3.org/2000/svg">
<g clip-path="url(#clip0)">
<path d="M35.9729 26.815C37.7697 24.0861 38.8172 20.8222 38.8172 17.3175C38.8172 7.76855 31.0483 0 21.4993 0C11.9504 0 4.18183 7.76855 4.18183 17.3175C4.18183 20.8222 5.22934 24.0861 7.02582 26.815L0.251953 36.694L8.00312 35.2488L9.44857 43L15.8366 33.6833C17.6121 34.2994 19.5172 34.635 21.4993 34.635C23.4818 34.635 25.3869 34.2994 27.1621 33.6833L33.5504 43L34.9956 35.2488L42.7467 36.694L35.9729 26.815ZM10.8182 36.5207L10.0299 32.2926L5.80214 33.0813L8.65498 28.9205C10.0214 30.4315 11.6502 31.7005 13.4683 32.6565L10.8182 36.5207ZM6.71613 17.3175C6.71613 9.16611 13.3479 2.53429 21.4993 2.53429C29.6511 2.53429 36.2829 9.16611 36.2829 17.3175C36.2829 25.4692 29.6511 32.1011 21.4993 32.1011C13.3479 32.1011 6.71613 25.4692 6.71613 17.3175ZM32.9688 32.2926L32.1805 36.5207L29.5307 32.6565C31.3488 31.7005 32.9776 30.4315 34.344 28.9205L37.1969 33.081L32.9688 32.2926Z" fill="white"/>
<path d="M18.4122 21.1207L14.2918 17.0006L12.4999 18.7925L18.4122 24.7048L30.4991 12.6183L28.7072 10.8264L18.4122 21.1207Z" fill="white"/>
</g>
<defs>
<clipPath id="clip0">
<rect width="43" height="43" fill="white"/>
</clipPath>
</defs>
</svg>
