<svg width="32" height="32" viewBox="0 0 32 32" fill="none" xmlns="http://www.w3.org/2000/svg">
<path d="M15.6055 19.591C17.3173 19.591 18.7128 18.1979 18.7128 16.4849C18.7128 15.8087 18.4916 15.1844 18.1253 14.6744C17.561 13.892 16.6436 13.3789 15.6074 13.3789C14.5706 13.3789 13.6538 13.8914 13.0882 14.6738C12.7207 15.1838 12.5014 15.8081 12.5007 16.4843C12.4989 18.1973 13.8931 19.591 15.6055 19.591Z" fill="white"/>
<path d="M22.3881 12.6854V10.0818V9.69434L21.9987 9.69559L19.3964 9.70371L19.4064 12.6954L22.3881 12.6854Z" fill="white"/>
<path d="M15.6061 0.969727C7.05107 0.969727 0.0909424 7.92986 0.0909424 16.4849C0.0909424 25.0393 7.05107 32 15.6061 32C24.1605 32 31.1212 25.0393 31.1212 16.4849C31.1212 7.92986 24.1617 0.969727 15.6061 0.969727ZM24.4298 14.6744V21.8989C24.4298 23.7806 22.9 25.3099 21.0195 25.3099H10.1927C8.31161 25.3099 6.78234 23.7806 6.78234 21.8989V14.6744V11.0721C6.78234 9.19102 8.31161 7.66175 10.1927 7.66175H21.0188C22.9 7.66175 24.4298 9.19102 24.4298 11.0721V14.6744Z" fill="white"/>
<path d="M20.4326 16.4848C20.4326 19.1452 18.2678 21.3113 15.6061 21.3113C12.9444 21.3113 10.7802 19.1452 10.7802 16.4848C10.7802 15.8449 10.9077 15.233 11.1352 14.6743H8.50098V21.8988C8.50098 22.8325 9.25905 23.5887 10.1921 23.5887H21.0182C21.95 23.5887 22.7093 22.8325 22.7093 21.8988V14.6743H20.0739C20.3033 15.233 20.4326 15.8449 20.4326 16.4848Z" fill="white"/>
</svg>
