<svg width="40" height="40" viewBox="0 0 40 40" fill="none" xmlns="http://www.w3.org/2000/svg">
<g clip-path="url(#clip0)">
<path d="M36.7923 23.0348C36.2637 24.7235 35.2719 26.2891 33.918 27.6445H12.5091C7.80304 27.6445 9.34515 24.1075 9.34515 24.1075C12.0022 18.4687 18.265 10.2206 20.4876 7.36485C22.9926 7.43009 25.3674 7.88665 27.4961 8.6622C22.5221 14.2503 18.1491 19.7877 16.3608 22.0926C16.006 22.5492 16.3391 23.2015 16.911 23.2015L36.7923 23.0348Z" fill="#CCCCCC"/>
<path d="M22.1232 7.77062C23.6419 8.06273 24.2757 9.88953 23.2649 11.0591C19.1888 15.7753 15.7624 20.1189 14.2312 22.0925C13.8764 22.5491 14.2095 23.2014 14.7814 23.2014L16.4307 23.1876C16.5035 23.1869 16.535 23.0956 16.4781 23.0503C16.2026 22.8312 16.1111 22.4138 16.3608 22.0925C18.1399 19.7994 22.4773 14.3069 27.4196 8.74812C27.4561 8.70703 27.4399 8.64164 27.3882 8.62312C25.2986 7.87531 22.9756 7.43359 20.5274 7.36578C20.5025 7.36507 20.4789 7.37601 20.4637 7.39562C20.4633 7.39609 20.463 7.39656 20.4626 7.39703C20.4257 7.44453 20.4548 7.5139 20.5146 7.52101C21.0595 7.58578 21.5961 7.66921 22.1232 7.77062Z" fill="#A6A6A6"/>
<path d="M34.6398 23.1056C34.1233 24.7132 33.1868 26.2077 31.9175 27.5134C31.8697 27.5625 31.9036 27.6445 31.9722 27.6445H33.8854C33.9062 27.6445 33.9263 27.6361 33.941 27.6213C35.2559 26.2988 36.2265 24.7772 36.7596 23.1371C36.7759 23.0869 36.7375 23.0352 36.6847 23.0357L34.7123 23.0523C34.679 23.0525 34.65 23.074 34.6398 23.1056Z" fill="#8C8C8C"/>
<path d="M20 6.32812C8.95453 6.32812 0 12.4491 0 20C0 27.5509 8.95453 33.6719 20 33.6719C31.0455 33.6719 40 27.5509 40 20C40 12.4491 31.0455 6.32812 20 6.32812ZM36.0934 22.7553C35.592 24.359 34.6495 25.8459 33.3642 27.1327C30.3598 30.1606 25.493 32.1294 20 32.1294C10.8773 32.1294 3.47367 26.6992 3.47367 20.0024C3.47367 13.3 10.8773 7.86984 20 7.86984C20.206 7.86984 20.4056 7.86984 20.6116 7.87625C22.9907 7.9382 25.245 8.37164 27.2668 9.10836C32.7525 11.0771 36.5263 15.2133 36.5263 20.0024C36.5263 20.9522 36.3751 21.8747 36.0934 22.7553Z" fill="#CCCCCC"/>
<path d="M19.0238 7.89148C18.8828 7.88515 18.7415 7.87991 18.5996 7.87624C18.3936 7.86983 18.194 7.86983 17.988 7.86983C8.86525 7.86983 1.46165 13.3 1.46165 20.0024C1.46165 26.6992 8.86525 32.1294 17.988 32.1294C18.3289 32.1294 18.6674 32.1217 19.0032 32.1067C10.3442 31.7282 3.47369 26.4534 3.47369 20.0024C3.47369 13.5408 10.3551 8.26249 19.0238 7.89148Z" fill="#A6A6A6"/>
<path d="M20 6.32812C19.6626 6.32812 19.3273 6.33406 18.994 6.34531C29.572 6.70359 37.9879 12.6798 37.9879 20C37.9879 27.3202 29.572 33.2964 18.994 33.6547C19.3273 33.666 19.6627 33.6719 20 33.6719C31.0455 33.6719 40 27.5509 40 20C40 12.4491 31.0455 6.32812 20 6.32812Z" fill="#8C8C8C"/>
</g>
<defs>
<clipPath id="clip0">
<rect width="40" height="40" fill="white"/>
</clipPath>
</defs>
</svg>
