<svg width="100" height="100" viewBox="0 0 100 100" fill="none" xmlns="http://www.w3.org/2000/svg">
<g clip-path="url(#clip0)">
<path d="M92.553 80.1035L91.4376 78.644C90.7784 77.7803 89.544 77.6147 88.6803 78.2747C87.8175 78.9346 87.6519 80.1691 88.3118 81.032L89.4265 82.4922C92.1426 86.0475 91.6589 91.0471 88.3248 93.8753C88.247 93.9409 88.1684 94.005 88.0883 94.0683C86.3305 95.4554 84.137 96.0733 81.9138 95.8109C79.6898 95.5477 77.7024 94.4353 76.3238 92.6866L57.8163 68.9104C62.896 66.3675 67.3035 62.6748 70.694 58.1742L78.743 68.509L79.2222 69.1362C79.6097 69.6428 80.1949 69.909 80.787 69.909C81.2035 69.909 81.6231 69.7771 81.9794 69.5047C82.8431 68.8447 83.0079 67.6111 82.3479 66.7474L81.8574 66.1058L72.9958 54.7265C76.1857 49.3096 78.019 43.0032 78.019 36.2756C78.019 16.1652 61.6585 -0.195312 41.5489 -0.195312C21.4385 -0.195312 5.07803 16.1652 5.07803 36.2756C5.07803 48.1225 10.8672 59.2752 20.5642 66.1081C21.9032 67.0511 23.3177 67.9117 24.7695 68.6647C26.847 69.7435 29.0374 70.6232 31.2812 71.2801C34.6023 72.2528 38.0562 72.7464 41.5489 72.7464C45.9526 72.7464 50.1762 71.9614 54.0878 70.5247L73.227 95.1128C75.264 97.6961 78.1853 99.3319 81.4522 99.7179C81.9436 99.7759 82.4349 99.8049 82.9224 99.8049C85.6744 99.8041 88.3302 98.8878 90.5244 97.1582C90.6419 97.0652 90.7571 96.9706 90.87 96.8752C95.8024 92.692 96.5417 85.325 92.553 80.1035ZM32.3867 67.505C30.3871 66.9191 28.4339 66.1348 26.5815 65.1735C25.2868 64.5013 24.0241 63.7338 22.8301 62.8915C14.1776 56.7949 9.01176 46.8446 9.01176 36.2756C9.01176 18.335 23.6076 3.73917 41.5489 3.73917C59.4895 3.73917 74.0853 18.335 74.0853 36.2756C74.0853 54.2161 59.4895 68.8119 41.5489 68.8119C38.4308 68.8119 35.3485 68.3725 32.3867 67.505Z" fill="url(#paint0_linear)"/>
<path d="M41.5588 9.77478C38.2721 9.77478 35.0654 10.3722 32.0274 11.5509C31.015 11.9438 30.5122 13.0829 30.9051 14.0961C31.298 15.1093 32.4379 15.6113 33.4503 15.2184C36.0328 14.2166 38.7611 13.7093 41.5588 13.7093C53.9268 13.7093 63.9893 23.7709 63.9893 36.1397C63.9893 48.5078 53.9268 58.5702 41.5588 58.5702C29.19 58.5702 19.1276 48.5078 19.1276 36.1397C19.1276 32.0107 20.2583 27.9755 22.3976 24.4706C22.9637 23.5436 22.6714 22.3328 21.7437 21.7667C20.816 21.2006 19.606 21.4936 19.0398 22.4213C16.5237 26.5427 15.1939 31.2867 15.1939 36.1397C15.1939 50.6768 27.021 62.5047 41.5588 62.5047C56.0959 62.5047 67.9238 50.6776 67.9238 36.1397C67.9238 21.6019 56.0959 9.77478 41.5588 9.77478Z" fill="url(#paint1_linear)"/>
<path d="M83.6053 75.1413C83.915 75.9066 84.6512 76.3704 85.4294 76.3704C85.6751 76.3704 85.9246 76.3239 86.1664 76.2262C87.1735 75.8188 87.6595 74.6721 87.2521 73.665L87.1804 73.4888C86.773 72.4817 85.6263 71.9957 84.6192 72.4031C83.6121 72.8105 83.1261 73.958 83.5335 74.9643L83.6053 75.1413Z" fill="url(#paint2_linear)"/>
<path d="M24.086 18.1564C24.3957 18.9217 25.1319 19.3863 25.9094 19.3863C26.1558 19.3863 26.4053 19.3397 26.6471 19.2421C27.6542 18.8347 28.1402 17.6872 27.7328 16.6809L27.6611 16.5039C27.2537 15.4968 26.1062 15.0116 25.0999 15.419C24.0928 15.8264 23.6068 16.9731 24.0142 17.9802L24.086 18.1564Z" fill="url(#paint3_linear)"/>
<path d="M24.2187 37.1782C24.5086 37.6588 31.4407 48.9625 41.42 48.9953H41.4635C51.4305 48.9953 58.3473 37.6573 58.6373 37.1736C59.0111 36.5503 59.0103 35.7713 58.6357 35.148C58.3451 34.665 51.4114 23.3285 41.4268 23.3285C31.4415 23.3285 24.5079 34.6658 24.2172 35.148C23.8418 35.7728 23.8418 36.5541 24.2187 37.1782ZM41.4268 27.263C47.6738 27.263 52.8 33.6373 54.5868 36.1634C52.8038 38.6918 47.6929 45.0616 41.4635 45.0616C41.4535 45.0616 41.4429 45.0616 41.4329 45.0616C35.1844 45.041 30.0582 38.6842 28.2684 36.1604C30.0575 33.6312 35.1822 27.263 41.4268 27.263Z" fill="url(#paint4_linear)"/>
<path d="M41.4268 42.5492C44.9486 42.5492 47.8134 39.6836 47.8134 36.1618C47.8134 32.6401 44.9486 29.7753 41.4268 29.7753C37.9043 29.7753 35.0395 32.6401 35.0395 36.1618C35.0395 39.6836 37.9051 42.5492 41.4268 42.5492ZM41.4268 33.709C42.7788 33.709 43.8797 34.8099 43.8797 36.1618C43.8797 37.5145 42.7788 38.6147 41.4268 38.6147C40.0741 38.6147 38.974 37.5145 38.974 36.1618C38.974 34.8099 40.0741 33.709 41.4268 33.709Z" fill="url(#paint5_linear)"/>
</g>
<defs>
<linearGradient id="paint0_linear" x1="50.0982" y1="99.8049" x2="50.0982" y2="-0.195312" gradientUnits="userSpaceOnUse">
<stop stop-color="#AF120A"/>
<stop offset="1" stop-color="#DA251C"/>
</linearGradient>
<linearGradient id="paint1_linear" x1="41.5588" y1="62.5047" x2="41.5588" y2="9.77478" gradientUnits="userSpaceOnUse">
<stop stop-color="#AF120A"/>
<stop offset="1" stop-color="#DA251C"/>
</linearGradient>
<linearGradient id="paint2_linear" x1="85.3928" y1="76.3704" x2="85.3928" y2="72.259" gradientUnits="userSpaceOnUse">
<stop stop-color="#AF120A"/>
<stop offset="1" stop-color="#DA251C"/>
</linearGradient>
<linearGradient id="paint3_linear" x1="25.8735" y1="19.3863" x2="25.8735" y2="15.2748" gradientUnits="userSpaceOnUse">
<stop stop-color="#AF120A"/>
<stop offset="1" stop-color="#DA251C"/>
</linearGradient>
<linearGradient id="paint4_linear" x1="41.4265" y1="48.9953" x2="41.4265" y2="23.3285" gradientUnits="userSpaceOnUse">
<stop stop-color="#AF120A"/>
<stop offset="1" stop-color="#DA251C"/>
</linearGradient>
<linearGradient id="paint5_linear" x1="41.4265" y1="42.5492" x2="41.4265" y2="29.7753" gradientUnits="userSpaceOnUse">
<stop stop-color="#AF120A"/>
<stop offset="1" stop-color="#DA251C"/>
</linearGradient>
<clipPath id="clip0">
<rect width="100" height="100" fill="white"/>
</clipPath>
</defs>
</svg>
