<svg width="110" height="110" viewBox="0 0 110 110" fill="none" xmlns="http://www.w3.org/2000/svg">
<path d="M79.8387 28.3871C84.7299 28.3871 88.7097 24.4073 88.7097 19.5161C88.7097 14.625 84.7299 10.6452 79.8387 10.6452C74.9476 10.6452 70.9678 14.625 70.9678 19.5161C70.9678 24.4073 74.9476 28.3871 79.8387 28.3871ZM79.8387 14.1935C82.7729 14.1935 85.1613 16.582 85.1613 19.5161C85.1613 22.4503 82.7729 24.8387 79.8387 24.8387C76.9045 24.8387 74.5161 22.4503 74.5161 19.5161C74.5161 16.582 76.9045 14.1935 79.8387 14.1935ZM8.87097 34.0345V51.1285L15.5666 52.4877C16.381 55.4435 17.5574 58.279 19.0743 60.9472L15.299 66.6457L27.3865 78.7333L33.0851 74.9562C35.755 76.4731 38.5922 77.6513 41.5463 78.4656L42.9055 85.1613H59.9995L61.3587 78.4656C64.3128 77.6513 67.1499 76.4748 69.8199 74.9562L70.9678 75.7194V101.129C70.9678 106.02 74.9476 110 79.8387 110C84.7299 110 88.7097 106.02 88.7097 101.129V68.7249C88.7097 66.8762 89.6834 65.1696 91.3138 64.162C97.4602 60.3598 101.129 53.8963 101.129 46.8706C101.129 41.2431 98.771 36.014 94.74 32.2144L97.0522 29.9023L94.9973 25.7951L99.3549 24.344V14.6882L94.9973 13.2371L97.0522 9.12999L90.2249 2.30264L86.1177 4.35752L84.6666 0H75.0125L73.5615 4.35752L69.4543 2.30264L64.1551 7.6027C63.2342 7.26744 62.3047 6.95643 61.3604 6.69567L59.9977 0H42.9038L41.5445 6.69567C38.5904 7.50827 35.7533 8.68645 33.0833 10.2033L27.3848 6.42799L15.2972 18.5155L19.0726 24.2141C17.5557 26.8841 16.3775 29.7212 15.5649 32.6753L8.87097 34.0345ZM97.5807 46.8706C97.5807 52.6601 94.5399 57.9948 89.4478 61.1438C86.7631 62.8028 85.1613 65.6382 85.1613 68.7249V78.0645H78.0645V81.6129H85.1613V92.2581H78.0645V95.8064H85.1613V101.129C85.1613 104.063 82.7729 106.452 79.8387 106.452C76.9045 106.452 74.5161 104.063 74.5161 101.129V88.7097H81.6129V85.1613H74.5161V74.5161H81.6129V70.9677H74.5161V68.7249C74.5161 65.6382 72.9143 62.8028 70.2297 61.1438C65.1375 57.9948 62.0968 52.6601 62.0968 46.8706C62.0968 41.4501 64.7563 36.4628 69.1936 33.2835V47.1348L79.8387 53.5221L90.4839 47.1348V33.2835C94.9211 36.4628 97.5807 41.4501 97.5807 46.8706ZM64.6801 25.7951L62.6252 29.9023L64.9374 32.2144C64.6784 32.4587 64.4211 32.7056 64.1759 32.9612C61.1846 29.003 56.5134 26.6129 51.4516 26.6129C42.6482 26.6129 35.4839 33.7772 35.4839 42.5806C35.4839 51.384 42.6482 58.5484 51.4516 58.5484C54.7765 58.5484 57.9489 57.5175 60.6206 55.635C61.6619 57.7592 63.0722 59.6997 64.8204 61.3786C60.9351 64.1421 56.2596 65.6452 51.4516 65.6452C38.7343 65.6452 28.3871 55.298 28.3871 42.5806C28.3871 29.8633 38.7343 19.5161 51.4516 19.5161C54.5409 19.5161 57.5123 20.1442 60.3226 21.3206V24.344L64.6801 25.7951ZM59.2882 52.2088C57.0774 54.0115 54.3347 55 51.4516 55C44.6035 55 39.0323 49.4288 39.0323 42.5806C39.0323 35.7325 44.6035 30.1613 51.4516 30.1613C55.6991 30.1613 59.5862 32.3314 61.8663 35.8598C59.7387 39.0851 58.5484 42.8769 58.5484 46.8706C58.5484 48.702 58.8092 50.4917 59.2882 52.2088ZM72.7419 35.0845L73.5597 34.6765L75.0108 39.0323H84.6649L86.116 34.6747L86.9355 35.0845V45.125L79.8387 49.3829L72.7419 45.125V35.0845ZM70.1534 6.61944L73.9894 8.53744L74.7578 8.19352C74.977 8.09389 75.2014 8.00726 75.4249 7.91976L76.2124 7.62176L77.5699 3.54839H82.1093L83.4685 7.62176L84.2569 7.91976C84.4821 8.00553 84.7056 8.09389 84.9239 8.19352L85.6915 8.53744L89.5275 6.61944L92.7371 9.8291L90.8191 13.6651L91.1631 14.4326C91.2627 14.6527 91.3493 14.8762 91.4368 15.1006L91.7348 15.888L95.8065 17.2473V21.7867L91.7331 23.1459L91.4351 23.9343C91.3493 24.1595 91.261 24.383 91.1613 24.6013L90.8174 25.3689L92.7354 29.2049L91.9497 29.9906C91.1709 29.4726 90.3522 28.9978 89.4937 28.5734L86.9355 27.3103V31.1177L85.6897 30.4948L84.9222 30.8387C84.7022 30.9384 84.4787 31.025 84.2543 31.1125L83.4668 31.4105L82.1076 35.4839H77.5681L76.2089 31.4105L75.4206 31.1125C75.1953 31.0267 74.9718 30.9384 74.7535 30.8387L73.986 30.4948L72.7419 31.1177V27.3103L70.1837 28.5699C69.3252 28.9935 68.5066 29.4691 67.7278 29.9872L66.942 29.2014L68.86 25.3654L68.5161 24.597C68.4165 24.3778 68.3298 24.1535 68.2424 23.93L67.9443 23.1425L63.871 21.785V17.2455L67.9443 15.8863L68.2424 15.098C68.3281 14.8727 68.4165 14.6492 68.5161 14.4309L68.86 13.6634L66.942 9.82737L70.1534 6.61944ZM18.7304 34.6106C19.5465 31.2502 20.8754 28.0449 22.6816 25.0821L23.269 24.1188L19.8601 18.973L27.8439 10.9891L32.9898 14.398L33.9531 13.8106C36.9141 12.0044 40.1195 10.6755 43.4816 9.85942L44.5784 9.59347L45.8042 3.54839H57.0973L58.3232 9.59347L59.4199 9.85942C60.8606 10.2085 62.2813 10.6755 63.6665 11.2143L64.6784 13.2371L60.3226 14.6882V17.4916C57.4872 16.4858 54.5157 15.9677 51.4516 15.9677C36.7773 15.9677 24.8387 27.9063 24.8387 42.5806C24.8387 57.255 36.7773 69.1936 51.4516 69.1936C57.3295 69.1936 63.0211 67.2244 67.655 63.6613C67.8967 63.8251 68.115 64.0096 68.3636 64.1638C69.994 65.1696 70.9678 66.8762 70.9678 68.7249V71.4607L69.9135 70.7616L68.9501 71.3489C65.9874 73.1552 62.782 74.4841 59.4216 75.3001L58.3249 75.5644L57.0991 81.6129H45.8059L44.5801 75.5661L43.4833 75.3019C40.1238 74.4858 36.9176 73.1569 33.9548 71.3506L32.9915 70.7633L27.8457 74.1739L19.8618 66.1883L23.2724 61.0425L22.6851 60.0791C20.8788 57.1181 19.5499 53.9128 18.7339 50.5507L18.4679 49.4539L12.4194 48.2281V36.9349L18.4644 35.7091L18.7304 34.6106ZM78.0645 101.129C78.0645 100.15 78.8598 99.3548 79.8387 99.3548C80.8176 99.3548 81.6129 100.15 81.6129 101.129C81.6129 102.108 80.8176 102.903 79.8387 102.903C78.8598 102.903 78.0645 102.108 78.0645 101.129ZM53.2258 10.6452H49.6774V7.09677H53.2258V10.6452ZM27.6152 21.2531L25.1064 18.7443L27.6152 16.2354L30.124 18.7443L27.6152 21.2531ZM19.5161 44.3548H15.9677V40.8064H19.5161V44.3548ZM27.6135 68.9276L25.1047 66.417L27.6152 63.9082L30.124 66.4188L27.6135 68.9276ZM53.2258 78.0645H49.6774V74.5161H53.2258V78.0645Z" fill="url(#paint0_linear)"/>
<defs>
<linearGradient id="paint0_linear" x1="55" y1="110" x2="55" y2="0" gradientUnits="userSpaceOnUse">
<stop stop-color="#AF120A"/>
<stop offset="1" stop-color="#DA251C"/>
</linearGradient>
</defs>
</svg>
