<svg width="18" height="18" viewBox="0 0 18 18" fill="none" xmlns="http://www.w3.org/2000/svg">
<g clip-path="url(#clip0)">
<path d="M9.00001 8.80318C11.0013 8.80318 12.6238 6.83254 12.6238 4.40162C12.6238 1.97064 12.0911 0 9.00001 0C5.9089 0 5.3761 1.97064 5.3761 4.40162C5.3761 6.83254 6.99862 8.80318 9.00001 8.80318Z" fill="black"/>
<path d="M2.15532 15.5239C2.1547 15.3756 2.15408 15.4821 2.15532 15.5239V15.5239Z" fill="black"/>
<path d="M15.8444 15.6396C15.8463 15.5991 15.845 15.3581 15.8444 15.6396V15.6396Z" fill="black"/>
<path d="M15.8367 15.3462C15.7696 11.1114 15.2165 9.90475 10.9843 9.14093C10.9843 9.14093 10.3885 9.90007 8.99996 9.90007C7.61138 9.90007 7.01553 9.14093 7.01553 9.14093C2.8295 9.89642 2.2428 11.0852 2.16566 15.2086C2.15934 15.5453 2.1564 15.563 2.15527 15.5239C2.15553 15.5971 2.15584 15.7326 2.15584 15.9688C2.15584 15.9688 3.16343 18 8.99996 18C14.8364 18 15.8441 15.9688 15.8441 15.9688C15.8441 15.817 15.8442 15.7115 15.8443 15.6397C15.8432 15.6639 15.8409 15.617 15.8367 15.3462Z" fill="black"/>
</g>
<defs>
<clipPath id="clip0">
<rect width="18" height="18" fill="white"/>
</clipPath>
</defs>
</svg>
