<svg width="56" height="56" viewBox="0 0 56 56" fill="none" xmlns="http://www.w3.org/2000/svg">
<path d="M14.875 37.8438C15.7811 37.8438 16.5156 37.1092 16.5156 36.2031C16.5156 35.297 15.7811 34.5625 14.875 34.5625C13.9689 34.5625 13.2344 35.297 13.2344 36.2031C13.2344 37.1092 13.9689 37.8438 14.875 37.8438Z" fill="black"/>
<path d="M24.7188 37.8438C25.6248 37.8438 26.3594 37.1092 26.3594 36.2031C26.3594 35.297 25.6248 34.5625 24.7188 34.5625C23.8127 34.5625 23.0781 35.297 23.0781 36.2031C23.0781 37.1092 23.8127 37.8438 24.7188 37.8438Z" fill="black"/>
<path d="M34.5625 37.8438C35.4686 37.8438 36.2031 37.1092 36.2031 36.2031C36.2031 35.297 35.4686 34.5625 34.5625 34.5625C33.6564 34.5625 32.9219 35.297 32.9219 36.2031C32.9219 37.1092 33.6564 37.8438 34.5625 37.8438Z" fill="black"/>
<path d="M54.3594 21.4375H51.0781C50.6429 21.4375 50.2257 21.6103 49.9181 21.918L47.1173 24.7188H42.7656V23.0781C42.7656 22.1721 42.0311 21.4375 41.125 21.4375H32.9219V18.1562H34.5625C35.4686 18.1562 36.2031 17.4217 36.2031 16.5156V11.5938H37.8438C38.7498 11.5938 39.4844 10.8592 39.4844 9.95312C39.4844 9.04706 38.7498 8.3125 37.8438 8.3125C36.9692 8.3125 12.9584 8.3125 11.5938 8.3125C10.6877 8.3125 9.95312 9.04706 9.95312 9.95312C9.95312 10.8592 10.6877 11.5938 11.5938 11.5938H13.2344V16.5156C13.2344 17.4217 13.9689 18.1562 14.875 18.1562H16.5156V21.4375H8.3125C7.40644 21.4375 6.67188 22.1721 6.67188 23.0781V24.7188H3.28125V23.0781C3.28125 22.1721 2.54669 21.4375 1.64062 21.4375C0.734562 21.4375 0 22.1721 0 23.0781V42.7656C0 43.6717 0.734562 44.4062 1.64062 44.4062C2.54669 44.4062 3.28125 43.6717 3.28125 42.7656V41.125H7.63295L13.7149 47.2069C14.0225 47.5146 14.4398 47.6875 14.875 47.6875H41.125C42.0311 47.6875 42.7656 46.9529 42.7656 46.0469V44.4062H47.1173L49.918 47.2069C50.2257 47.5146 50.6429 47.6875 51.0781 47.6875H54.3594C55.2654 47.6875 56 46.9529 56 46.0469V23.0781C56 22.1721 55.2654 21.4375 54.3594 21.4375ZM6.67188 37.8438H3.28125V28H6.67188V37.8438ZM16.5156 11.5938H32.9219V14.875C30.4819 14.875 18.6869 14.875 16.5156 14.875V11.5938ZM29.6406 18.1562V21.4375H19.7969V18.1562H29.6406ZM39.4844 42.7656V44.4062H15.5545L9.95312 38.8048V31.2812H39.4844V42.7656ZM39.4844 28H9.95312C9.95312 26.8524 9.95312 25.8663 9.95312 24.7188C13.7293 24.7188 36.6172 24.7188 39.4844 24.7188C39.4844 25.8663 39.4844 26.8524 39.4844 28ZM46.1562 41.125H42.7656V28H46.1562V41.125ZM52.7188 44.4062H51.7577L49.4375 42.0861V27.0389L51.7577 24.7188H52.7188V44.4062Z" fill="black"/>
</svg>
