<svg width="48" height="48" viewBox="0 0 48 48" fill="none" xmlns="http://www.w3.org/2000/svg">
<path d="M29.625 16.875H18.375C17.5984 16.875 16.9688 17.5046 16.9688 18.2812C16.9688 19.0579 17.5984 19.6875 18.375 19.6875H29.625C30.4016 19.6875 31.0312 19.0579 31.0312 18.2812C31.0312 17.5046 30.4016 16.875 29.625 16.875Z" fill="#444C57"/>
<path d="M46.5938 0C45.8171 0 45.1875 0.629625 45.1875 1.40625V28.125H39.2269C39.383 27.6848 39.4688 27.2117 39.4688 26.7188V25.0706C41.1055 24.4901 42.2812 22.927 42.2812 21.0938V15.4688C42.2812 13.5366 40.9751 11.9047 39.1997 11.407L37.1468 3.19556C36.6765 1.31409 34.9935 0 33.0541 0H14.9459C13.0065 0 11.3235 1.31409 10.8531 3.19556L8.80031 11.407C7.02488 11.9047 5.71875 13.5366 5.71875 15.4688V21.0938C5.71875 22.927 6.89447 24.4901 8.53125 25.0706V26.7188C8.53125 27.2117 8.61703 27.6848 8.77312 28.125H2.8125V1.40625C2.8125 0.629625 2.18288 0 1.40625 0C0.629625 0 0 0.629625 0 1.40625C0 3.97528 0 44.1574 0 46.5938C0 47.3704 0.629625 48 1.40625 48C2.18288 48 2.8125 47.3704 2.8125 46.5938V36.5625H45.1875V46.5938C45.1875 47.3704 45.8171 48 46.5938 48C47.3704 48 48 47.3704 48 46.5938C48 44.1484 48 3.96722 48 1.40625C48 0.629625 47.3704 0 46.5938 0ZM39.4688 21.0938C39.4688 21.8692 38.8379 22.5 38.0625 22.5H36.6562V21.0938C36.6562 20.3183 37.2871 19.6875 38.0625 19.6875H39.4688V21.0938ZM13.5817 3.87769C13.7384 3.2505 14.2995 2.8125 14.9459 2.8125H33.054C33.7005 2.8125 34.2615 3.2505 34.4183 3.87769L36.2615 11.25H25.8321L30.4051 8.20134C31.0513 7.77047 31.226 6.89738 30.7952 6.25125C30.3643 5.60494 29.4912 5.43038 28.8451 5.86116L20.7617 11.25H11.7385L13.5817 3.87769ZM8.53125 15.4688C8.53125 14.6933 9.16209 14.0625 9.9375 14.0625C10.2654 14.0625 37.7993 14.0625 38.0625 14.0625C38.8379 14.0625 39.4688 14.6933 39.4688 15.4688V16.875H38.0625C35.7363 16.875 33.8438 18.7675 33.8438 21.0938V22.5C33.2642 22.5 14.9437 22.5 14.1562 22.5V21.0938C14.1562 18.7675 12.2637 16.875 9.9375 16.875H8.53125V15.4688ZM36.6562 25.3125V26.7188C36.6562 27.4942 36.0254 28.125 35.25 28.125C34.4746 28.125 33.8438 27.4942 33.8438 26.7188V25.3125H36.6562ZM31.2731 28.125H16.7269C16.883 27.6848 16.9688 27.2117 16.9688 26.7188V25.3125H31.0312V26.7188C31.0312 27.2117 31.117 27.6848 31.2731 28.125ZM14.1562 25.3125V26.7188C14.1562 27.4942 13.5254 28.125 12.75 28.125C11.9746 28.125 11.3438 27.4942 11.3438 26.7188V25.3125H14.1562ZM8.53125 21.0938V19.6875H9.9375C10.7129 19.6875 11.3438 20.3183 11.3438 21.0938V22.5H9.9375C9.16209 22.5 8.53125 21.8692 8.53125 21.0938ZM45.1875 33.75H2.8125V30.9375H45.1875V33.75Z" fill="#444C57"/>
</svg>
