<svg width="34" height="34" viewBox="0 0 34 34" fill="none" xmlns="http://www.w3.org/2000/svg">
<g clip-path="url(#clip0)">
<path d="M22.3555 15.6188C23.0617 15.1476 23.8949 14.9469 24.7103 15.0384L34 5.74614L28.7976 0.543701L19.5066 9.83594C19.6006 10.6615 19.3923 11.5049 18.902 12.22L22.3555 15.6188Z" fill="white"/>
<path d="M6.14995 26.9357L5.81337 26.5991L4.0517 28.0229L1.08469 32.6982L1.84422 33.4578L6.52337 30.4908L7.94591 28.7342L7.60805 28.3925L13.5167 22.4826L12.0484 21.0347L6.14995 26.9357Z" fill="white"/>
<path d="M14.2305 10.5511C14.9125 8.11241 14.294 5.38672 12.3799 3.46883C10.4722 1.56873 7.77825 0.945094 5.35358 1.60302L9.4599 5.70807L8.38283 9.72928L4.35653 10.8064L0.251485 6.70385C-0.4039 9.12724 0.218462 11.8212 2.12238 13.7264C4.11775 15.723 6.99331 16.3085 9.50816 15.4906L9.53103 15.5134L26.4224 32.4048C27.0905 33.0717 27.9669 33.4095 28.842 33.4095C29.7184 33.4095 30.5923 33.0717 31.2629 32.4048C32.5978 31.0725 32.5978 28.9069 31.2629 27.5644L14.2305 10.5511ZM29.1367 31.8307C28.4178 31.8307 27.8348 31.2452 27.8348 30.5238C27.8348 29.7998 28.4178 29.2168 29.1367 29.2168C29.8607 29.2168 30.4462 29.7998 30.4462 30.5238C30.4475 31.2452 29.8619 31.8307 29.1367 31.8307Z" fill="white"/>
</g>
<defs>
<clipPath id="clip0">
<rect width="34" height="34" fill="white"/>
</clipPath>
</defs>
</svg>
