<svg width="46" height="46" viewBox="0 0 46 46" fill="none" xmlns="http://www.w3.org/2000/svg">
<g clip-path="url(#clip0)">
<path d="M21.8094 17.7141L23.181 18.3999H26.0665C26.0665 17.1297 25.0371 16.0999 23.7665 16.0999H22.2332C20.963 16.0999 19.9331 17.1297 19.9331 18.3999H20.3827L20.9248 17.8582C21.1576 17.6246 21.514 17.5666 21.8094 17.7141Z" fill="white"/>
<path d="M24.1337 26.0664H21.8659L22.9998 28.7168L24.1337 26.0664Z" fill="white"/>
<path d="M17.6331 29.8998V31.3848C20.9005 33.4939 25.0996 33.4939 28.3665 31.3848V29.8998C28.3718 28.2395 27.2993 26.7672 25.7173 26.2629L23.7047 30.9685C23.5838 31.2504 23.3064 31.4331 22.9998 31.4331C22.6932 31.4331 22.4162 31.2504 22.2953 30.9685L20.282 26.2629C18.7004 26.7679 17.6286 28.2395 17.6331 29.8998Z" fill="white"/>
<path d="M22.6573 19.8567L21.62 19.333L21.2445 19.7085C21.1 19.853 20.9042 19.9338 20.6998 19.9331V20.6998C20.6998 21.9703 21.7296 22.9998 22.9998 22.9998C24.2704 22.9998 25.2998 21.9703 25.2998 20.6998V19.9331H22.9998C22.8815 19.9346 22.764 19.9084 22.6573 19.8567Z" fill="white"/>
<path d="M32.9666 22.9998C32.9744 18.4612 29.9145 14.4908 25.5237 13.3415C21.1329 12.1919 16.5202 14.1543 14.3032 18.1145C12.0863 22.0752 12.8249 27.0331 16.0998 30.1754V29.8999C16.1084 26.9395 18.5061 24.5418 21.4665 24.5332H22.9998C20.884 24.5309 19.1691 22.816 19.1665 20.6998V19.9331C18.7431 19.9331 18.3998 19.5902 18.3998 19.1665V18.3998C18.4024 16.2839 20.1173 14.569 22.2331 14.5664H23.7665C25.8827 14.569 27.5976 16.2839 27.5999 18.3998V19.1665C27.5999 19.5902 27.257 19.9331 26.8332 19.9331V20.6998C26.8309 22.816 25.116 24.5309 22.9998 24.5332H24.5332C27.4939 24.5418 29.8916 26.9395 29.8999 29.8999V30.1754C31.8585 28.3021 32.9662 25.7101 32.9666 22.9998Z" fill="white"/>
<path d="M43.4702 19.9878C42.9783 16.6055 41.6482 13.4003 39.6008 10.6634C40.4622 9.4479 40.32 7.78765 39.2643 6.73647C38.1959 5.72048 36.5656 5.58197 35.3411 6.40292C32.6035 4.35372 29.3964 3.02215 26.0122 2.52987C25.7558 1.0669 24.4853 0 22.9998 0C21.5148 0 20.2442 1.0669 19.9878 2.52987C16.6029 3.02177 13.3951 4.35334 10.6567 6.40292C9.43218 5.58197 7.80187 5.72048 6.73347 6.73647C5.67743 7.78802 5.53517 9.44828 6.39693 10.6642C4.35035 13.4007 3.02102 16.6059 2.52987 19.9878C1.0669 20.2442 0 21.5148 0 22.9998C0 24.4853 1.0669 25.7558 2.52987 26.0122C3.02177 29.3941 4.35222 32.5993 6.39993 35.3359C5.53966 36.5521 5.68079 38.2116 6.73422 39.2651C7.78765 40.3189 9.44678 40.46 10.6634 39.6001C13.4003 41.6474 16.6055 42.9779 19.9878 43.4702C20.2442 44.9331 21.5148 46 22.9998 46C24.4853 46 25.7558 44.9331 26.0122 43.4702C29.3945 42.9783 32.5997 41.6482 35.3366 39.6008C36.5529 40.4626 38.2131 40.3218 39.2673 39.2681C40.3211 38.2139 40.4619 36.5536 39.6001 35.3374C41.6478 32.6005 42.9783 29.3949 43.4702 26.0122C44.9331 25.7558 46 24.4853 46 22.9998C46 21.5148 44.9331 20.2442 43.4702 19.9878ZM38.4186 34.3558C37.248 33.8111 35.8633 34.0376 34.9271 34.9271C33.9987 35.8461 33.7636 37.2567 34.3446 38.4269C31.8544 40.2702 28.9509 41.4756 25.8872 41.9368C25.4691 40.6984 24.3074 39.8644 22.9998 39.8644C21.6926 39.8644 20.531 40.6984 20.1128 41.9368C17.0484 41.4756 14.1441 40.2706 11.6532 38.4269C12.2353 37.257 12.0006 35.8457 11.0715 34.9271C10.1352 34.0372 8.75011 33.8107 7.57913 34.3558C5.73208 31.863 4.5248 28.9554 4.06322 25.8872C5.30158 25.4691 6.13563 24.3074 6.13563 22.9998C6.13563 21.6926 5.30158 20.531 4.06322 20.1128C4.52405 17.0484 5.72946 14.1438 7.57315 11.6532C8.74374 12.232 10.1528 11.9999 11.0763 11.0763C11.9999 10.1528 12.232 8.74374 11.6532 7.57315C14.1441 5.72946 17.0484 4.52442 20.1128 4.06322C20.531 5.30158 21.6926 6.13563 22.9998 6.13563C24.3074 6.13563 25.4691 5.30158 25.8872 4.06322C28.9517 4.52405 31.8563 5.72946 34.3468 7.57315C33.7703 8.74374 34.0032 10.1513 34.9259 11.0741C35.8487 11.9969 37.2563 12.2297 38.4269 11.6532C40.2706 14.1438 41.476 17.0484 41.9368 20.1128C40.6984 20.531 39.8644 21.6926 39.8644 22.9998C39.8644 24.3074 40.6984 25.4691 41.9368 25.8872C41.4749 28.9554 40.2664 31.8634 38.4186 34.3558Z" fill="white"/>
</g>
<defs>
<clipPath id="clip0">
<rect width="46" height="46" fill="white"/>
</clipPath>
</defs>
</svg>
