<svg width="40" height="40" viewBox="0 0 40 40" fill="none" xmlns="http://www.w3.org/2000/svg">
<path d="M20 6.64062C8.95375 6.64062 0 12.6218 0 20C0 27.3782 8.95375 33.3594 20 33.3594C31.0455 33.3594 40 27.3782 40 20C40 12.6218 31.0455 6.64062 20 6.64062ZM30.0386 11.8717C30.6277 12.3071 30.6261 13.1755 30.0354 13.6101C29.2298 14.2016 27.81 14.9041 25.8463 15.416C25.8084 15.2792 25.769 15.1432 25.7271 15.0096C24.8426 12.1373 23.204 10.0184 21.2474 9.37773C25.6604 9.58773 28.701 10.8818 30.0386 11.8717ZM16.5618 18.8484C17.666 18.9739 18.8194 19.0407 20 19.0407C21.1806 19.0407 22.3332 18.9739 23.4374 18.8484C23.4616 19.1936 23.4745 19.5493 23.4745 19.9139C23.4745 24.5985 21.3827 27.7066 20 27.7066C18.6165 27.7066 16.5248 24.5986 16.5248 19.9139C16.5248 19.5493 16.5377 19.1936 16.5618 18.8484ZM22.9248 15.9568C22.0193 16.063 21.043 16.1234 20 16.1234C19.6571 16.1234 19.3216 16.117 18.994 16.1041C18.9908 16.1041 18.9884 16.1041 18.9859 16.1033C18.3171 16.0784 17.6805 16.0277 17.0745 15.9568C17.7891 13.5602 19.0584 12.1204 20 12.1204C20.9409 12.1204 22.2101 13.5602 22.9248 15.9568ZM9.96375 11.862C10.9963 11.1039 13.039 10.1623 15.9412 9.67547C15.9903 9.66742 16.041 9.65859 16.0917 9.65055C16.9127 9.51859 17.8004 9.42281 18.7525 9.37773C16.7042 10.0481 15.0052 12.3377 14.1537 15.4152C12.1866 14.9018 10.7653 14.196 9.96055 13.6005C9.37141 13.1642 9.37305 12.2959 9.96375 11.862ZM21.2113 30.7953C21.1437 30.7993 21.076 30.8017 21.0084 30.8041H21.006C20.6728 30.8178 20.3372 30.8243 20 30.8243C10.7646 30.8243 2.96258 25.8677 2.96258 20C2.96258 17.7345 4.12477 15.6059 6.08367 13.8459C6.77984 15.7902 9.6925 17.4658 13.6298 18.3566C13.5847 18.8652 13.5622 19.3852 13.5622 19.9139C13.5622 25.8444 16.4443 30.6521 20 30.6521C23.5549 30.6521 26.437 25.8444 26.437 19.9139C26.437 19.3852 26.4145 18.8652 26.3695 18.3566C30.3066 17.4658 33.2194 15.7902 33.9155 13.8459C35.8737 15.6059 37.0366 17.7345 37.0366 20C37.0366 25.6093 29.9066 30.3857 21.2113 30.7953ZM25.7272 15.0095C25.7634 15.1463 25.8028 15.2823 25.8463 15.4159C25.8084 15.2791 25.769 15.1431 25.7272 15.0095Z" fill="#CCCCCC"/>
<path d="M9.96055 13.6004C10.7654 14.1959 12.1867 14.9017 14.1537 15.4152C10.7445 15.2784 8.92016 14.286 8.34336 13.7361C7.76657 13.1862 7.96727 12.2958 8.55797 11.862C9.89719 10.8786 11.4889 10.2823 16.0917 9.65047C16.041 9.65851 15.9903 9.66734 15.9413 9.67539C13.0391 10.1623 10.9964 11.1039 9.96376 11.862C9.37305 12.2959 9.37141 13.1642 9.96055 13.6004Z" fill="#8C8C8C"/>
<path d="M20 6.64062C19.6626 6.64062 19.3273 6.64641 18.9939 6.65742C29.5719 7.0075 37.9879 12.8471 37.9879 20C37.9879 27.1529 29.5719 32.9925 18.9939 33.3426C19.3273 33.3536 19.6626 33.3594 20 33.3594C31.0455 33.3594 40 27.3782 40 20C40 12.6218 31.0455 6.64062 20 6.64062Z" fill="#8C8C8C"/>
<path d="M26.3695 18.3566C26.4145 18.8652 26.437 19.3852 26.437 19.9139C26.437 25.8444 23.5549 30.6521 20 30.6521C19.658 30.6521 19.3216 30.607 18.994 30.5209C22.0709 29.7153 24.3525 26.8817 24.3525 21.5227C24.3525 21.517 24.4249 19.9034 24.4249 19.8978C24.4242 19.0109 25.4945 18.5071 26.3695 18.3566Z" fill="#8C8C8C"/>
<path d="M25.8463 15.4159C25.7878 15.4384 25.7221 15.4569 25.651 15.4717C24.7326 15.6639 23.8027 15.1541 23.4491 14.285C22.4313 11.7837 20.5404 9.96305 18.7525 9.37766C19.658 9.15555 20.4266 9.24485 21.2475 9.37766C23.2041 10.0183 24.8427 12.1373 25.7272 15.0095C25.7634 15.1463 25.8028 15.2824 25.8463 15.4159Z" fill="#8C8C8C"/>
</svg>
