<svg width="100" height="100" viewBox="0 0 100 100" fill="none" xmlns="http://www.w3.org/2000/svg">
<g clip-path="url(#clip0)">
<path d="M87.115 43.4867V41.876H71.0088V0H17.1915L0.141647 17.0499V93.4158H65.1255C68.0951 95.978 71.4728 98.1281 75.206 99.7277L75.8407 99.9998L76.4753 99.7277C90.7664 93.6045 99.9999 79.5997 99.9999 64.0527V54.761H98.3893C92.1741 54.761 87.115 49.7019 87.115 43.4867ZM5.6404 16.1062L16.2478 5.49875V16.1062H5.6404ZM9.80535 19.3274H19.4691V9.6637H61.3451V25.7699H9.80535V19.3274ZM3.36288 19.3274H6.58412V28.9911H64.5663V6.44247H19.4691V3.22123H67.7876V41.876H64.5663V43.4867C64.5663 49.7019 59.5072 54.761 53.292 54.761H51.6814V64.0527C51.6814 73.9366 55.4248 83.1866 61.8138 90.1946H3.36288V19.3274ZM96.7787 64.0527C96.7787 78.0795 88.584 90.7341 75.8407 96.4892C63.0973 90.7356 54.9026 78.0795 54.9026 64.0527V57.8934C61.6109 57.1494 66.9532 51.8071 67.6971 45.0989H83.9826C84.7266 51.8071 90.0688 57.1494 96.7771 57.8934V64.0527H96.7787ZM82.7747 65.2174L86.9844 55.3941L84.0243 54.1263L79.9624 63.6052C78.6836 63.1011 77.2971 62.8141 75.8407 62.8141C69.6255 62.8141 64.5663 67.8732 64.5663 74.0884C64.5663 80.3036 69.6255 85.3627 75.8407 85.3627C82.0559 85.3627 87.115 80.3036 87.115 74.0884C87.115 70.4873 85.4108 67.2834 82.7747 65.2174ZM75.8407 82.1415C71.4005 82.1415 67.7876 78.5286 67.7876 74.0884C67.7876 69.6482 71.4005 66.0353 75.8407 66.0353C76.8457 66.0353 77.7989 66.2429 78.6868 66.5811L75.1227 74.8953L71.9014 72.7483L70.1146 75.4285L76.5571 79.724L81.4424 68.3238C82.95 69.7882 83.8938 71.8274 83.8938 74.0884C83.8938 78.5286 80.2809 82.1415 75.8407 82.1415ZM6.58412 86.9733H48.4602V57.9822H6.58412V86.9733ZM9.80535 61.2035H45.2389V83.7521H9.80535V61.2035ZM13.0266 32.2123H48.4602V35.4336H13.0266V32.2123ZM9.80535 35.4336H6.58412V32.2123H9.80535V35.4336ZM6.58412 38.6548H48.4602V41.876H6.58412V38.6548ZM6.58412 45.0973H48.4602V48.3185H6.58412V45.0973ZM6.58412 51.5397H48.4602V54.761H6.58412V51.5397Z" fill="url(#paint0_linear)"/>
</g>
<defs>
<linearGradient id="paint0_linear" x1="50.0708" y1="99.9998" x2="50.0708" y2="0" gradientUnits="userSpaceOnUse">
<stop stop-color="#AF120A"/>
<stop offset="1" stop-color="#DA251C"/>
</linearGradient>
<clipPath id="clip0">
<rect width="100" height="100" fill="white"/>
</clipPath>
</defs>
</svg>
