<svg width="32" height="32" viewBox="0 0 32 32" fill="none" xmlns="http://www.w3.org/2000/svg">
<g clip-path="url(#clip0)">
<path d="M8.15076 16.6602H9.38086V23.318H10.5446V16.6602H11.7976V15.5698H8.15076V16.6602Z" fill="white"/>
<path d="M17.9909 17.474C17.6062 17.474 17.2471 17.6842 16.9097 18.1V15.5693H15.8637V23.3179H16.9097V22.7585C17.2598 23.1906 17.6185 23.3975 17.9909 23.3975C18.4071 23.3975 18.6871 23.1785 18.8267 22.7487C18.8969 22.5039 18.9328 22.1195 18.9328 21.5852V19.2863C18.9328 18.7397 18.8969 18.3581 18.8267 18.126C18.6874 17.693 18.4068 17.474 17.9909 17.474ZM17.8862 21.6671C17.8862 22.189 17.7331 22.4462 17.4309 22.4462C17.2592 22.4462 17.0843 22.3639 16.9094 22.1887V18.6701C17.0843 18.4971 17.2592 18.4152 17.4309 18.4152C17.7328 18.4152 17.8862 18.6825 17.8862 19.2031V21.6671Z" fill="white"/>
<path d="M13.9117 21.9566C13.6797 22.2845 13.4603 22.4461 13.2502 22.4461C13.1105 22.4461 13.0308 22.3639 13.0054 22.2014C12.9959 22.1677 12.9959 22.0401 12.9959 21.795V17.5444H11.9496V22.109C11.9496 22.5169 11.9848 22.7924 12.042 22.9677C12.147 23.2604 12.3794 23.3975 12.7159 23.3975C13.101 23.3975 13.4959 23.1651 13.9117 22.6883V23.3181H14.9587V17.5444H13.9117V21.9566Z" fill="white"/>
<path d="M14.8098 12.211C15.1504 12.211 15.3139 11.9409 15.3139 11.4012V8.94704C15.3139 8.40706 15.1504 8.13818 14.8098 8.13818C14.4689 8.13818 14.3051 8.40738 14.3051 8.94704V11.4012C14.3051 11.9412 14.4689 12.211 14.8098 12.211Z" fill="white"/>
<path d="M15.5152 0C6.94634 0 0 6.94634 0 15.5152C0 24.084 6.94634 31.0303 15.5152 31.0303C24.084 31.0303 31.0303 24.084 31.0303 15.5152C31.0303 6.94634 24.084 0 15.5152 0ZM17.2408 7.25681H18.295V11.5525C18.295 11.8004 18.295 11.929 18.3077 11.9636C18.3309 12.1274 18.4141 12.2112 18.5556 12.2112C18.7671 12.2112 18.989 12.0474 19.2236 11.7163V7.25681H20.2806V13.0911H19.2236V12.455C18.8026 12.9375 18.4014 13.1715 18.0157 13.1715C17.6754 13.1715 17.4405 13.0334 17.3344 12.7381C17.276 12.5613 17.2408 12.2823 17.2408 11.8706V7.25681ZM13.248 9.15926C13.248 8.53548 13.354 8.07963 13.5787 7.78472C13.8711 7.38569 14.2828 7.18633 14.8098 7.18633C15.3393 7.18633 15.7507 7.38569 16.0431 7.78472C16.2646 8.07931 16.3707 8.53548 16.3707 9.15926V11.2023C16.3707 11.8226 16.2646 12.2826 16.0431 12.5743C15.7507 12.9724 15.3393 13.1715 14.8098 13.1715C14.2828 13.1715 13.8711 12.9724 13.5787 12.5743C13.354 12.2826 13.248 11.8223 13.248 11.2023V9.15926ZM10.4208 5.26198L11.2531 8.33644L12.0528 5.26198H13.2384L11.828 9.92049V13.0915H10.656V9.92049C10.5497 9.35861 10.3151 8.53548 9.9389 7.44346C9.69193 6.71683 9.43448 5.98798 9.18751 5.26198H10.4208ZM23.8675 23.8278C23.6554 24.7481 22.9027 25.4274 21.9964 25.5287C19.8496 25.7683 17.6779 25.7696 15.5142 25.7683C13.3514 25.7696 11.1785 25.7683 9.03228 25.5287C8.12597 25.4274 7.37299 24.7484 7.16157 23.8278C6.85968 22.517 6.85968 21.0857 6.85968 19.7359C6.85968 18.3861 6.86349 16.9551 7.16506 15.644C7.3768 14.7234 8.12915 14.0441 9.03545 13.9432C11.182 13.7035 13.3546 13.7022 15.518 13.7035C17.6808 13.7022 19.8534 13.7035 21.9999 13.9432C22.9062 14.0444 23.6592 14.7234 23.8716 15.644C24.1725 16.9551 24.1706 18.3861 24.1706 19.7359C24.1706 21.0857 24.1694 22.517 23.8675 23.8278Z" fill="white"/>
<path d="M21.3228 17.4741C20.7876 17.4741 20.3721 17.6706 20.0699 18.0658C19.848 18.3579 19.7467 18.8093 19.7467 19.4261V21.4485C19.7467 22.0622 19.86 22.5167 20.0829 22.8059C20.3848 23.2002 20.8016 23.3973 21.3489 23.3973C21.8952 23.3973 22.324 23.1907 22.6136 22.7713C22.7405 22.5859 22.8231 22.3761 22.858 22.1444C22.8678 22.0396 22.8802 21.8076 22.8802 21.4701V21.3181H21.8133C21.8133 21.7371 21.7996 21.9698 21.7904 22.0266C21.7307 22.3063 21.5803 22.446 21.3228 22.446C20.9635 22.446 20.7876 22.1793 20.7876 21.6454V20.6213H22.8802V19.4255C22.8802 18.8087 22.7758 18.3573 22.5564 18.0652C22.264 17.6709 21.8479 17.4741 21.3228 17.4741ZM21.8345 19.7508H20.7882V19.2166C20.7882 18.6826 20.9638 18.4157 21.3133 18.4157C21.6593 18.4157 21.8345 18.683 21.8345 19.2166V19.7508Z" fill="white"/>
</g>
<defs>
<clipPath id="clip0">
<rect width="31.0303" height="31.0303" fill="white"/>
</clipPath>
</defs>
</svg>
